#!OML:ASF F:\VICON\USERDATA\INSTALL\rory3\rory3.ASF
:FULLY-SPECIFIED
:DEGREES
868
root 1.04096 17.6981 6.55656 13.2888 66.8741 7.83125
lowerback 3.73092 0.37373 -3.64952
upperback 2.29254 0.415405 1.49994
thorax 0.230115 0.174262 3.57824
lowerneck -13.603 7.3077 -5.31875
upperneck 38.3592 16.4565 -4.67074
head 16.1027 5.96199 1.86381
rclavicle 4.57205e-014 -1.51076e-014
rhumerus -35.538 -2.03228 -77.1849
rradius 46.9792
rwrist 9.99617
rhand -25.3741 5.06846
rfingers 7.12502
rthumb 1.15024 -24.9082
lclavicle 4.57205e-014 -1.51076e-014
lhumerus -34.6686 0.829603 88.0869
lradius 47.8918
lwrist -4.55297
lhand -13.5111 20.5235
lfingers 7.12502
lthumb 12.6005 50.1234
rfemur -34.5909 9.17881 9.67765
rtibia 34.5284
rfoot -12.002 -1.11881
rtoes -5.74116
lfemur -8.96404 -5.58191 -31.0142
ltibia 23.8505
lfoot -1.46324 -28.6467
ltoes 23.0051
869
root 1.10571 17.6968 6.59022 13.5204 67.834 7.91103
lowerback 3.57942 0.394752 -3.70553
upperback 2.30196 0.447383 1.57446
thorax 0.320946 0.187249 3.68671
lowerneck -13.4856 7.33834 -5.21968
upperneck 38.3921 16.5565 -4.78433
head 16.1207 6.01462 1.81567
rclavicle 9.54166e-015 -1.43125e-014
rhumerus -35.6283 -1.98637 -76.9672
rradius 47.0646
rwrist 9.99515
rhand -25.5409 4.99619
rfingers 7.12502
rthumb 0.989153 -24.9813
lclavicle 9.54166e-015 -1.43125e-014
lhumerus -34.796 1.05774 88.1619
lradius 47.55
lwrist -4.80124
lhand -13.6152 21.3659
lfingers 7.12502
lthumb 12.5001 50.972
rfemur -34.6382 8.75938 10.1296
rtibia 33.0864
rfoot -11.1785 0.425361
rtoes -5.87283
lfemur -8.88701 -5.91928 -30.7928
ltibia 23.8966
lfoot -0.745705 -29.17
ltoes 23.9782
870
root 1.16577 17.7004 6.62536 13.4627 68.8811 7.7413
lowerback 3.61553 0.496928 -3.52213
upperback 2.27979 0.587299 1.50036
thorax 0.266976 0.261086 3.50123
lowerneck -13.4347 7.32424 -4.87466
upperneck 38.5419 16.4465 -4.66916
head 16.198 6.03229 1.79534
rclavicle -7.95139e-015 1.98785e-014
rhumerus -35.8397 -2.52674 -76.9052
rradius 47.0597
rwrist 10.4124
rhand -25.5019 4.98637
rfingers 7.12502
rthumb 1.02681 -24.9909
lclavicle -7.95139e-015 1.98785e-014
lhumerus -34.8669 0.90099 88.0291
lradius 47.0764
lwrist -5.00735
lhand -14.0421 21.7502
lfingers 7.12502
lthumb 12.0885 51.381
rfemur -34.6233 8.32524 10.7381
rtibia 31.6881
rfoot -10.3556 1.96101
rtoes -6.97964
lfemur -8.76496 -6.22724 -30.4184
ltibia 23.9879
lfoot -0.019369 -29.7312
ltoes 24.9417
871
root 1.22675 17.7042 6.66068 13.8195 70.1157 8.04176
lowerback 3.65189 0.603865 -3.43281
upperback 2.27608 0.731027 1.36507
thorax 0.232702 0.33547 3.30553
lowerneck -13.4774 7.26905 -4.56186
upperneck 38.7224 16.2462 -4.43334
head 16.2913 6.01886 1.82129
rclavicle 2.98177e-016 5.56597e-015
rhumerus -36.1165 -3.22877 -76.7806
rradius 47.1389
rwrist 10.7546
rhand -25.2709 4.8588
rfingers 7.12502
rthumb 1.24995 -25.1173
lclavicle 2.98177e-016 5.56597e-015
lhumerus -34.7889 0.5736 87.87
lradius 46.4126
lwrist -5.41789
lhand -13.8131 21.0276
lfingers 7.12502
lthumb 12.3093 50.6452
rfemur -34.5186 7.77369 11.1583
rtibia 30.3311
rfoot -9.37427 3.2451
rtoes -8.41364
lfemur -8.60554 -6.62313 -30.1629
ltibia 24.0957
lfoot 0.781591 -30.41
ltoes 25.9726
872
root 1.29243 17.7075 6.6942 14.2546 71.3342 8.41169
lowerback 3.58478 0.62797 -3.37275
upperback 2.30633 0.767915 1.33417
thorax 0.299255 0.353204 3.23928
lowerneck -13.6069 7.30704 -4.50504
upperneck 38.817 16.3485 -4.40204
head 16.375 6.07 1.85812
rclavicle -1.68967e-014 7.15625e-015
rhumerus -36.2782 -3.55159 -76.5907
rradius 47.155
rwrist 10.9723
rhand -25.1966 4.90049
rfingers 7.12502
rthumb 1.32172 -25.0752
lclavicle -1.68967e-014 7.15625e-015
lhumerus -34.6881 0.564927 87.7741
lradius 45.7626
lwrist -5.7732
lhand -13.2871 21.0921
lfingers 7.12502
lthumb 12.8164 50.6787
rfemur -34.4087 7.51874 11.4026
rtibia 29.0443
rfoot -8.10768 4.48578
rtoes -9.00878
lfemur -8.46125 -7.03438 -29.9593
ltibia 24.1965
lfoot 1.41941 -31.0219
ltoes 26.5159
873
root 1.36198 17.7107 6.7293 14.1018 72.4346 8.1681
lowerback 3.46963 0.686782 -3.16108
upperback 2.32663 0.856474 1.37928
thorax 0.379096 0.397864 3.16489
lowerneck -13.4953 7.30714 -4.32355
upperneck 38.731 16.4483 -4.71838
head 16.3715 6.11443 1.711
rclavicle -5.02925e-014 1.59028e-014
rhumerus -36.5042 -3.81994 -76.3433
rradius 47.1874
rwrist 11.1344
rhand -25.0665 5.0456
rfingers 7.12502
rthumb 1.44731 -24.9292
lclavicle -5.02925e-014 1.59028e-014
lhumerus -34.6586 0.402417 87.7333
lradius 45.1648
lwrist -5.75118
lhand -13.2372 22.0183
lfingers 7.12502
lthumb 12.8646 51.6018
rfemur -34.31 7.80866 11.6718
rtibia 27.8578
rfoot -6.92378 5.6041
rtoes -8.59133
lfemur -8.28789 -7.39535 -29.577
ltibia 24.3053
lfoot 1.83258 -31.5091
ltoes 26.7898
874
root 1.43189 17.7166 6.7643 14.3857 73.4349 8.35077
lowerback 3.29488 0.772875 -3.13031
upperback 2.3927 0.978289 1.35679
thorax 0.535966 0.455758 3.1232
lowerneck -13.1079 7.33742 -3.75133
upperneck 38.1899 16.4808 -5.39246
head 16.1495 6.17371 1.31173
rclavicle 3.48867e-014 2.38542e-015
rhumerus -36.6116 -4.25467 -76.1133
rradius 47.1747
rwrist 11.6253
rhand -24.7818 5.29993
rfingers 7.12502
rthumb 1.72235 -24.6729
lclavicle 3.48867e-014 2.38542e-015
lhumerus -34.4838 0.236905 87.5864
lradius 44.4671
lwrist -5.7082
lhand -13.4348 22.4531
lfingers 7.12502
lthumb 12.674 52.0485
rfemur -34.2621 8.01185 11.858
rtibia 26.799
rfoot -5.59894 6.57357
rtoes -9.68482
lfemur -8.1543 -7.71183 -29.3031
ltibia 24.4591
lfoot 2.31417 -32.0204
ltoes 27.2869
